<?xml version="1.0" encoding="utf-8"?><svg id="Layer_1" data-name="Layer 1" xmlns="http://www.w3.org/2000/svg" xmlns:xlink="http://www.w3.org/1999/xlink" viewBox="0 0 324.27 145.4"><defs><style>.cls-1{fill:#fff;}.cls-1,.cls-4{fill-rule:evenodd;}.cls-2,.cls-4{fill:#384659;}.cls-3{mask:url(#mask);}.cls-5{mask:url(#mask-2-2);}.cls-6{mask:url(#mask-3);}.cls-7{mask:url(#mask-4-2);}.cls-8{mask:url(#mask-5);}</style><mask id="mask" x="240.62" y="54.8" width="52.32" height="52.32" maskUnits="userSpaceOnUse"><g id="mask-2"><path id="path-1" class="cls-1" d="M266.83,90.17l-9.67,5.91a1,1,0,0,1-1.35-.32,1,1,0,0,1-.12-.74l2.63-11-8.61-7.38a1,1,0,0,1,.56-1.72l11.31-.9,4.35-10.47a1,1,0,0,1,1.81,0L272.09,74l11.3.9a1,1,0,0,1,.9,1.06.93.93,0,0,1-.34.66L275.34,84,278,95a1,1,0,0,1-.73,1.18,1,1,0,0,1-.74-.12Z"/></g></mask><mask id="mask-2-2" x="188.3" y="54.8" width="52.32" height="52.32" maskUnits="userSpaceOnUse"><g id="mask-4"><path id="path-3" class="cls-1" d="M214.51,90.17l-9.67,5.91a1,1,0,0,1-1.35-.32,1,1,0,0,1-.12-.74L206,84l-8.61-7.38a1,1,0,0,1-.1-1.38,1,1,0,0,1,.66-.34l11.3-.9,4.36-10.47a1,1,0,0,1,1.81,0L219.77,74l11.3.9A1,1,0,0,1,232,76a.93.93,0,0,1-.34.66L223,84l2.63,11a1,1,0,0,1-.72,1.18,1,1,0,0,1-.74-.12Z"/></g></mask><mask id="mask-3" x="135.97" y="54.8" width="52.32" height="52.32" maskUnits="userSpaceOnUse"><g id="mask-6"><path id="path-5" class="cls-1" d="M162.19,90.17l-9.67,5.91a1,1,0,0,1-1.35-.32,1,1,0,0,1-.12-.74l2.63-11-8.61-7.38a1,1,0,0,1,.56-1.72l11.3-.9,4.36-10.47a1,1,0,0,1,1.81,0L167.45,74l11.3.9a1,1,0,0,1,.9,1.06.93.93,0,0,1-.34.66L170.7,84l2.63,11a1,1,0,0,1-.72,1.18,1,1,0,0,1-.74-.12Z"/></g></mask><mask id="mask-4-2" x="83.65" y="54.8" width="52.32" height="52.32" maskUnits="userSpaceOnUse"><g id="mask-8"><path id="path-7" class="cls-1" d="M109.87,90.17l-9.67,5.91a1,1,0,0,1-1.35-.32,1,1,0,0,1-.12-.74l2.63-11-8.61-7.38a1,1,0,0,1,.56-1.72l11.3-.9L109,63.52a1,1,0,0,1,1.82,0L115.13,74l11.3.9a1,1,0,0,1,.9,1.06.93.93,0,0,1-.34.66L118.38,84,121,95a1,1,0,0,1-1.47,1.06Z"/></g></mask><mask id="mask-5" x="31.33" y="54.8" width="52.32" height="52.32" maskUnits="userSpaceOnUse"><g id="mask-10"><path id="path-9" class="cls-1" d="M57.55,90.17l-9.68,5.91a1,1,0,0,1-1.35-.32,1,1,0,0,1-.11-.74L49,84l-8.61-7.38A1,1,0,0,1,41,74.89l11.3-.9,4.35-10.47A1,1,0,0,1,57.93,63a1,1,0,0,1,.52.53L62.81,74l11.3.9A1,1,0,0,1,75,76a.93.93,0,0,1-.34.66L66.06,84l2.63,11A1,1,0,0,1,68,96.2a1,1,0,0,1-.74-.12Z"/></g></mask></defs><title>FiveStarRating-Blue</title><g id="Page-1"><g id="Artboard"><g id="Rating"><g id="Group"><g id="Star"><path class="cls-2" d="M266.83,90.17l-9.67,5.91a1,1,0,0,1-1.35-.32,1,1,0,0,1-.12-.74l2.63-11-8.61-7.38a1,1,0,0,1,.56-1.72l11.31-.9,4.35-10.47a1,1,0,0,1,1.81,0L272.09,74l11.3.9a1,1,0,0,1,.9,1.06.93.93,0,0,1-.34.66L275.34,84,278,95a1,1,0,0,1-.73,1.18,1,1,0,0,1-.74-.12Z"/></g><g class="cls-3"><g id="base"><polygon class="cls-4" points="240.62 54.8 292.94 54.8 292.94 107.12 240.62 107.12 240.62 54.8"/></g></g></g><path class="cls-2" d="M214.51,90.17l-9.67,5.91a1,1,0,0,1-1.35-.32,1,1,0,0,1-.12-.74L206,84l-8.61-7.38a1,1,0,0,1-.1-1.38,1,1,0,0,1,.66-.34l11.3-.9,4.36-10.47a1,1,0,0,1,1.81,0L219.77,74l11.3.9A1,1,0,0,1,232,76a.93.93,0,0,1-.34.66L223,84l2.63,11a1,1,0,0,1-.72,1.18,1,1,0,0,1-.74-.12Z"/><g class="cls-5"><polygon class="cls-4" points="188.3 54.8 240.62 54.8 240.62 107.12 188.3 107.12 188.3 54.8"/></g><path class="cls-2" d="M162.19,90.17l-9.67,5.91a1,1,0,0,1-1.35-.32,1,1,0,0,1-.12-.74l2.63-11-8.61-7.38a1,1,0,0,1,.56-1.72l11.3-.9,4.36-10.47a1,1,0,0,1,1.81,0L167.45,74l11.3.9a1,1,0,0,1,.9,1.06.93.93,0,0,1-.34.66L170.7,84l2.63,11a1,1,0,0,1-.72,1.18,1,1,0,0,1-.74-.12Z"/><g class="cls-6"><polygon class="cls-4" points="135.97 54.8 188.3 54.8 188.3 107.12 135.97 107.12 135.97 54.8"/></g><path class="cls-2" d="M109.87,90.17l-9.67,5.91a1,1,0,0,1-1.35-.32,1,1,0,0,1-.12-.74l2.63-11-8.61-7.38a1,1,0,0,1,.56-1.72l11.3-.9L109,63.52a1,1,0,0,1,1.82,0L115.13,74l11.3.9a1,1,0,0,1,.9,1.06.93.93,0,0,1-.34.66L118.38,84,121,95a1,1,0,0,1-1.47,1.06Z"/><g class="cls-7"><polygon class="cls-4" points="83.65 54.8 135.97 54.8 135.97 107.12 83.65 107.12 83.65 54.8"/></g><path class="cls-2" d="M57.55,90.17l-9.68,5.91a1,1,0,0,1-1.35-.32,1,1,0,0,1-.11-.74L49,84l-8.61-7.38A1,1,0,0,1,41,74.89l11.3-.9,4.35-10.47A1,1,0,0,1,57.93,63a1,1,0,0,1,.52.53L62.81,74l11.3.9A1,1,0,0,1,75,76a.93.93,0,0,1-.34.66L66.06,84l2.63,11A1,1,0,0,1,68,96.2a1,1,0,0,1-.74-.12Z"/><g class="cls-8"><polygon class="cls-4" points="31.33 54.8 83.65 54.8 83.65 107.12 31.33 107.12 31.33 54.8"/></g></g></g></g></svg>